<mxfile host="Electron" agent="Mozilla/5.0 (Windows NT 10.0; Win64; x64) AppleWebKit/537.36 (KHTML, like Gecko) draw.io/24.7.17 Chrome/128.0.6613.36 Electron/32.0.1 Safari/537.36" version="24.7.17" pages="2">
  <diagram name="Схема данных" id="edf60f1a-56cd-e834-aa8a-f176f3a09ee4">
    <mxGraphModel dx="998" dy="377" grid="1" gridSize="10" guides="1" tooltips="1" connect="1" arrows="1" fold="1" page="1" pageScale="1" pageWidth="1169" pageHeight="827" background="none" math="0" shadow="0">
      <root>
        <mxCell id="0" />
        <mxCell id="1" parent="0" />
        <mxCell id="CkwOvy4Y8bdaGsf6uyHz-2" value="game" style="shape=table;startSize=30;container=1;collapsible=1;childLayout=tableLayout;fixedRows=1;rowLines=0;fontStyle=1;align=center;resizeLast=1;html=1;rounded=0;fontFamily=Lucida Console;labelBorderColor=none;textShadow=0;fontSize=13;" parent="1" vertex="1">
          <mxGeometry x="910" y="170" width="180" height="150" as="geometry">
            <mxRectangle x="80" y="90" width="70" height="30" as="alternateBounds" />
          </mxGeometry>
        </mxCell>
        <mxCell id="CkwOvy4Y8bdaGsf6uyHz-3" value="" style="shape=tableRow;horizontal=0;startSize=0;swimlaneHead=0;swimlaneBody=0;fillColor=none;collapsible=0;dropTarget=0;points=[[0,0.5],[1,0.5]];portConstraint=eastwest;top=0;left=0;right=0;bottom=1;sketch=1;curveFitting=1;jiggle=2;rounded=1;fontFamily=Lucida Console;labelBorderColor=none;textShadow=0;fontSize=13;" parent="CkwOvy4Y8bdaGsf6uyHz-2" vertex="1">
          <mxGeometry y="30" width="180" height="30" as="geometry" />
        </mxCell>
        <mxCell id="CkwOvy4Y8bdaGsf6uyHz-4" value="PK" style="shape=partialRectangle;connectable=0;fillColor=none;top=0;left=0;bottom=0;right=0;fontStyle=1;overflow=hidden;whiteSpace=wrap;html=1;sketch=1;curveFitting=1;jiggle=2;rounded=1;fontFamily=Lucida Console;labelBorderColor=none;textShadow=0;fontSize=13;" parent="CkwOvy4Y8bdaGsf6uyHz-3" vertex="1">
          <mxGeometry width="30" height="30" as="geometry">
            <mxRectangle width="30" height="30" as="alternateBounds" />
          </mxGeometry>
        </mxCell>
        <mxCell id="CkwOvy4Y8bdaGsf6uyHz-5" value="id" style="shape=partialRectangle;connectable=0;fillColor=none;top=0;left=0;bottom=0;right=0;align=left;spacingLeft=6;fontStyle=5;overflow=hidden;whiteSpace=wrap;html=1;rounded=1;fontFamily=Lucida Console;labelBorderColor=none;textShadow=0;fontSize=13;" parent="CkwOvy4Y8bdaGsf6uyHz-3" vertex="1">
          <mxGeometry x="30" width="150" height="30" as="geometry">
            <mxRectangle width="150" height="30" as="alternateBounds" />
          </mxGeometry>
        </mxCell>
        <mxCell id="CkwOvy4Y8bdaGsf6uyHz-6" value="" style="shape=tableRow;horizontal=0;startSize=0;swimlaneHead=0;swimlaneBody=0;fillColor=none;collapsible=0;dropTarget=0;points=[[0,0.5],[1,0.5]];portConstraint=eastwest;top=0;left=0;right=0;bottom=0;rounded=1;fontFamily=Lucida Console;labelBorderColor=none;textShadow=0;fontSize=13;" parent="CkwOvy4Y8bdaGsf6uyHz-2" vertex="1">
          <mxGeometry y="60" width="180" height="30" as="geometry" />
        </mxCell>
        <mxCell id="CkwOvy4Y8bdaGsf6uyHz-7" value="FK" style="shape=partialRectangle;connectable=0;fillColor=none;top=0;left=0;bottom=0;right=0;editable=1;overflow=hidden;whiteSpace=wrap;html=1;sketch=1;curveFitting=1;jiggle=2;rounded=1;fontFamily=Lucida Console;labelBorderColor=none;textShadow=0;fontSize=13;" parent="CkwOvy4Y8bdaGsf6uyHz-6" vertex="1">
          <mxGeometry width="30" height="30" as="geometry">
            <mxRectangle width="30" height="30" as="alternateBounds" />
          </mxGeometry>
        </mxCell>
        <mxCell id="CkwOvy4Y8bdaGsf6uyHz-8" value="moderatorId" style="shape=partialRectangle;connectable=0;fillColor=none;top=0;left=0;bottom=0;right=0;align=left;spacingLeft=6;overflow=hidden;whiteSpace=wrap;html=1;rounded=1;fontFamily=Lucida Console;labelBorderColor=none;textShadow=0;fontSize=13;" parent="CkwOvy4Y8bdaGsf6uyHz-6" vertex="1">
          <mxGeometry x="30" width="150" height="30" as="geometry">
            <mxRectangle width="150" height="30" as="alternateBounds" />
          </mxGeometry>
        </mxCell>
        <mxCell id="CkwOvy4Y8bdaGsf6uyHz-221" value="" style="shape=tableRow;horizontal=0;startSize=0;swimlaneHead=0;swimlaneBody=0;fillColor=none;collapsible=0;dropTarget=0;points=[[0,0.5],[1,0.5]];portConstraint=eastwest;top=0;left=0;right=0;bottom=0;sketch=1;curveFitting=1;jiggle=2;rounded=1;fontFamily=Lucida Console;labelBorderColor=none;textShadow=0;fontSize=13;" parent="CkwOvy4Y8bdaGsf6uyHz-2" vertex="1">
          <mxGeometry y="90" width="180" height="30" as="geometry" />
        </mxCell>
        <mxCell id="CkwOvy4Y8bdaGsf6uyHz-222" value="" style="shape=partialRectangle;connectable=0;fillColor=none;top=0;left=0;bottom=0;right=0;editable=1;overflow=hidden;whiteSpace=wrap;html=1;sketch=1;curveFitting=1;jiggle=2;rounded=1;fontFamily=Lucida Console;labelBorderColor=none;textShadow=0;fontSize=13;" parent="CkwOvy4Y8bdaGsf6uyHz-221" vertex="1">
          <mxGeometry width="30" height="30" as="geometry">
            <mxRectangle width="30" height="30" as="alternateBounds" />
          </mxGeometry>
        </mxCell>
        <mxCell id="CkwOvy4Y8bdaGsf6uyHz-223" value="teamCount" style="shape=partialRectangle;connectable=0;fillColor=none;top=0;left=0;bottom=0;right=0;align=left;spacingLeft=6;overflow=hidden;whiteSpace=wrap;html=1;sketch=1;curveFitting=1;jiggle=2;rounded=1;fontFamily=Lucida Console;labelBorderColor=none;textShadow=0;fontSize=13;" parent="CkwOvy4Y8bdaGsf6uyHz-221" vertex="1">
          <mxGeometry x="30" width="150" height="30" as="geometry">
            <mxRectangle width="150" height="30" as="alternateBounds" />
          </mxGeometry>
        </mxCell>
        <mxCell id="CkwOvy4Y8bdaGsf6uyHz-224" value="" style="shape=tableRow;horizontal=0;startSize=0;swimlaneHead=0;swimlaneBody=0;fillColor=none;collapsible=0;dropTarget=0;points=[[0,0.5],[1,0.5]];portConstraint=eastwest;top=0;left=0;right=0;bottom=0;sketch=1;curveFitting=1;jiggle=2;rounded=1;fontFamily=Lucida Console;labelBorderColor=none;textShadow=0;fontSize=13;" parent="CkwOvy4Y8bdaGsf6uyHz-2" vertex="1">
          <mxGeometry y="120" width="180" height="30" as="geometry" />
        </mxCell>
        <mxCell id="CkwOvy4Y8bdaGsf6uyHz-225" value="" style="shape=partialRectangle;connectable=0;fillColor=none;top=0;left=0;bottom=0;right=0;editable=1;overflow=hidden;whiteSpace=wrap;html=1;sketch=1;curveFitting=1;jiggle=2;rounded=1;fontFamily=Lucida Console;labelBorderColor=none;textShadow=0;fontSize=13;" parent="CkwOvy4Y8bdaGsf6uyHz-224" vertex="1">
          <mxGeometry width="30" height="30" as="geometry">
            <mxRectangle width="30" height="30" as="alternateBounds" />
          </mxGeometry>
        </mxCell>
        <mxCell id="CkwOvy4Y8bdaGsf6uyHz-226" value="tourCount" style="shape=partialRectangle;connectable=0;fillColor=none;top=0;left=0;bottom=0;right=0;align=left;spacingLeft=6;overflow=hidden;whiteSpace=wrap;html=1;sketch=1;curveFitting=1;jiggle=2;rounded=1;fontFamily=Lucida Console;labelBorderColor=none;textShadow=0;fontSize=13;" parent="CkwOvy4Y8bdaGsf6uyHz-224" vertex="1">
          <mxGeometry x="30" width="150" height="30" as="geometry">
            <mxRectangle width="150" height="30" as="alternateBounds" />
          </mxGeometry>
        </mxCell>
        <mxCell id="CkwOvy4Y8bdaGsf6uyHz-18" value="users" style="shape=table;startSize=30;container=1;collapsible=1;childLayout=tableLayout;fixedRows=1;rowLines=0;fontStyle=1;align=center;resizeLast=1;html=1;rounded=0;fontFamily=Lucida Console;labelBorderColor=none;textShadow=0;fontSize=13;" parent="1" vertex="1">
          <mxGeometry x="100" y="541" width="200" height="150" as="geometry">
            <mxRectangle x="440" y="90" width="70" height="30" as="alternateBounds" />
          </mxGeometry>
        </mxCell>
        <mxCell id="CkwOvy4Y8bdaGsf6uyHz-19" value="" style="shape=tableRow;horizontal=0;startSize=0;swimlaneHead=0;swimlaneBody=0;fillColor=none;collapsible=0;dropTarget=0;points=[[0,0.5],[1,0.5]];portConstraint=eastwest;top=0;left=0;right=0;bottom=1;sketch=1;curveFitting=1;jiggle=2;rounded=1;fontFamily=Lucida Console;labelBorderColor=none;textShadow=0;fontSize=13;" parent="CkwOvy4Y8bdaGsf6uyHz-18" vertex="1">
          <mxGeometry y="30" width="200" height="30" as="geometry" />
        </mxCell>
        <mxCell id="CkwOvy4Y8bdaGsf6uyHz-20" value="PK" style="shape=partialRectangle;connectable=0;fillColor=none;top=0;left=0;bottom=0;right=0;fontStyle=1;overflow=hidden;whiteSpace=wrap;html=1;sketch=1;curveFitting=1;jiggle=2;rounded=1;fontFamily=Lucida Console;labelBorderColor=none;textShadow=0;fontSize=13;" parent="CkwOvy4Y8bdaGsf6uyHz-19" vertex="1">
          <mxGeometry width="30" height="30" as="geometry">
            <mxRectangle width="30" height="30" as="alternateBounds" />
          </mxGeometry>
        </mxCell>
        <mxCell id="CkwOvy4Y8bdaGsf6uyHz-21" value="id" style="shape=partialRectangle;connectable=0;fillColor=none;top=0;left=0;bottom=0;right=0;align=left;spacingLeft=6;fontStyle=5;overflow=hidden;whiteSpace=wrap;html=1;sketch=1;curveFitting=1;jiggle=2;rounded=1;fontFamily=Lucida Console;labelBorderColor=none;textShadow=0;fontSize=13;" parent="CkwOvy4Y8bdaGsf6uyHz-19" vertex="1">
          <mxGeometry x="30" width="170" height="30" as="geometry">
            <mxRectangle width="170" height="30" as="alternateBounds" />
          </mxGeometry>
        </mxCell>
        <mxCell id="CkwOvy4Y8bdaGsf6uyHz-25" value="" style="shape=tableRow;horizontal=0;startSize=0;swimlaneHead=0;swimlaneBody=0;fillColor=none;collapsible=0;dropTarget=0;points=[[0,0.5],[1,0.5]];portConstraint=eastwest;top=0;left=0;right=0;bottom=0;sketch=1;curveFitting=1;jiggle=2;rounded=1;fontFamily=Lucida Console;labelBorderColor=none;textShadow=0;fontSize=13;" parent="CkwOvy4Y8bdaGsf6uyHz-18" vertex="1">
          <mxGeometry y="60" width="200" height="30" as="geometry" />
        </mxCell>
        <mxCell id="CkwOvy4Y8bdaGsf6uyHz-26" value="" style="shape=partialRectangle;connectable=0;fillColor=none;top=0;left=0;bottom=0;right=0;editable=1;overflow=hidden;whiteSpace=wrap;html=1;sketch=1;curveFitting=1;jiggle=2;rounded=1;fontFamily=Lucida Console;labelBorderColor=none;textShadow=0;fontSize=13;" parent="CkwOvy4Y8bdaGsf6uyHz-25" vertex="1">
          <mxGeometry width="30" height="30" as="geometry">
            <mxRectangle width="30" height="30" as="alternateBounds" />
          </mxGeometry>
        </mxCell>
        <mxCell id="CkwOvy4Y8bdaGsf6uyHz-27" value="name" style="shape=partialRectangle;connectable=0;fillColor=none;top=0;left=0;bottom=0;right=0;align=left;spacingLeft=6;overflow=hidden;whiteSpace=wrap;html=1;sketch=1;curveFitting=1;jiggle=2;rounded=1;fontFamily=Lucida Console;labelBorderColor=none;textShadow=0;fontSize=13;" parent="CkwOvy4Y8bdaGsf6uyHz-25" vertex="1">
          <mxGeometry x="30" width="170" height="30" as="geometry">
            <mxRectangle width="170" height="30" as="alternateBounds" />
          </mxGeometry>
        </mxCell>
        <mxCell id="CkwOvy4Y8bdaGsf6uyHz-191" value="" style="shape=tableRow;horizontal=0;startSize=0;swimlaneHead=0;swimlaneBody=0;fillColor=none;collapsible=0;dropTarget=0;points=[[0,0.5],[1,0.5]];portConstraint=eastwest;top=0;left=0;right=0;bottom=0;sketch=1;curveFitting=1;jiggle=2;rounded=1;fontFamily=Lucida Console;labelBorderColor=none;textShadow=0;fontSize=13;" parent="CkwOvy4Y8bdaGsf6uyHz-18" vertex="1">
          <mxGeometry y="90" width="200" height="30" as="geometry" />
        </mxCell>
        <mxCell id="CkwOvy4Y8bdaGsf6uyHz-192" value="" style="shape=partialRectangle;connectable=0;fillColor=none;top=0;left=0;bottom=0;right=0;editable=1;overflow=hidden;whiteSpace=wrap;html=1;sketch=1;curveFitting=1;jiggle=2;rounded=1;fontFamily=Lucida Console;labelBorderColor=none;textShadow=0;fontSize=13;" parent="CkwOvy4Y8bdaGsf6uyHz-191" vertex="1">
          <mxGeometry width="30" height="30" as="geometry">
            <mxRectangle width="30" height="30" as="alternateBounds" />
          </mxGeometry>
        </mxCell>
        <mxCell id="CkwOvy4Y8bdaGsf6uyHz-193" value="surname" style="shape=partialRectangle;connectable=1;fillColor=none;top=0;left=0;bottom=0;right=0;align=left;spacingLeft=6;overflow=hidden;whiteSpace=wrap;html=1;sketch=1;curveFitting=1;jiggle=2;rounded=1;fontFamily=Lucida Console;labelBorderColor=none;textShadow=0;fontSize=13;movable=1;resizable=1;rotatable=1;deletable=1;editable=1;locked=0;" parent="CkwOvy4Y8bdaGsf6uyHz-191" vertex="1">
          <mxGeometry x="30" width="170" height="30" as="geometry">
            <mxRectangle width="170" height="30" as="alternateBounds" />
          </mxGeometry>
        </mxCell>
        <mxCell id="CkwOvy4Y8bdaGsf6uyHz-28" value="" style="shape=tableRow;horizontal=0;startSize=0;swimlaneHead=0;swimlaneBody=0;fillColor=none;collapsible=0;dropTarget=0;points=[[0,0.5],[1,0.5]];portConstraint=eastwest;top=0;left=0;right=0;bottom=0;sketch=1;curveFitting=1;jiggle=2;rounded=1;fontFamily=Lucida Console;labelBorderColor=none;textShadow=0;fontSize=13;" parent="CkwOvy4Y8bdaGsf6uyHz-18" vertex="1">
          <mxGeometry y="120" width="200" height="30" as="geometry" />
        </mxCell>
        <mxCell id="CkwOvy4Y8bdaGsf6uyHz-29" value="" style="shape=partialRectangle;connectable=0;fillColor=none;top=0;left=0;bottom=0;right=0;editable=1;overflow=hidden;whiteSpace=wrap;html=1;sketch=1;curveFitting=1;jiggle=2;rounded=1;fontFamily=Lucida Console;labelBorderColor=none;textShadow=0;fontSize=13;" parent="CkwOvy4Y8bdaGsf6uyHz-28" vertex="1">
          <mxGeometry width="30" height="30" as="geometry">
            <mxRectangle width="30" height="30" as="alternateBounds" />
          </mxGeometry>
        </mxCell>
        <mxCell id="CkwOvy4Y8bdaGsf6uyHz-30" value="email&amp;nbsp;" style="shape=partialRectangle;connectable=0;fillColor=none;top=0;left=0;bottom=0;right=0;align=left;spacingLeft=6;overflow=hidden;whiteSpace=wrap;html=1;sketch=1;curveFitting=1;jiggle=2;rounded=1;fontFamily=Lucida Console;labelBorderColor=none;textShadow=0;fontSize=13;" parent="CkwOvy4Y8bdaGsf6uyHz-28" vertex="1">
          <mxGeometry x="30" width="170" height="30" as="geometry">
            <mxRectangle width="170" height="30" as="alternateBounds" />
          </mxGeometry>
        </mxCell>
        <mxCell id="CkwOvy4Y8bdaGsf6uyHz-68" value="tours" style="shape=table;startSize=30;container=1;collapsible=1;childLayout=tableLayout;fixedRows=1;rowLines=0;fontStyle=1;align=center;resizeLast=1;html=1;rounded=0;fontFamily=Lucida Console;labelBorderColor=none;textShadow=0;fontSize=13;" parent="1" vertex="1">
          <mxGeometry x="39.99999999999994" y="120" width="180" height="180" as="geometry">
            <mxRectangle x="80" y="90" width="70" height="30" as="alternateBounds" />
          </mxGeometry>
        </mxCell>
        <mxCell id="CkwOvy4Y8bdaGsf6uyHz-82" value="" style="shape=tableRow;horizontal=0;startSize=0;swimlaneHead=0;swimlaneBody=0;fillColor=none;collapsible=0;dropTarget=0;points=[[0,0.5],[1,0.5]];portConstraint=eastwest;top=0;left=0;right=0;bottom=1;sketch=1;curveFitting=1;jiggle=2;rounded=1;fontFamily=Lucida Console;labelBorderColor=none;textShadow=0;fontSize=13;" parent="CkwOvy4Y8bdaGsf6uyHz-68" vertex="1">
          <mxGeometry y="30" width="180" height="30" as="geometry" />
        </mxCell>
        <mxCell id="CkwOvy4Y8bdaGsf6uyHz-83" value="PK" style="shape=partialRectangle;connectable=0;fillColor=none;top=0;left=0;bottom=0;right=0;fontStyle=1;overflow=hidden;whiteSpace=wrap;html=1;sketch=1;curveFitting=1;jiggle=2;rounded=1;fontFamily=Lucida Console;labelBorderColor=none;textShadow=0;fontSize=13;" parent="CkwOvy4Y8bdaGsf6uyHz-82" vertex="1">
          <mxGeometry width="30" height="30" as="geometry">
            <mxRectangle width="30" height="30" as="alternateBounds" />
          </mxGeometry>
        </mxCell>
        <mxCell id="CkwOvy4Y8bdaGsf6uyHz-84" value="id" style="shape=partialRectangle;connectable=0;fillColor=none;top=0;left=0;bottom=0;right=0;align=left;spacingLeft=6;fontStyle=5;overflow=hidden;whiteSpace=wrap;html=1;sketch=1;curveFitting=1;jiggle=2;rounded=1;fontFamily=Lucida Console;labelBorderColor=none;textShadow=0;fontSize=13;" parent="CkwOvy4Y8bdaGsf6uyHz-82" vertex="1">
          <mxGeometry x="30" width="150" height="30" as="geometry">
            <mxRectangle width="150" height="30" as="alternateBounds" />
          </mxGeometry>
        </mxCell>
        <mxCell id="CkwOvy4Y8bdaGsf6uyHz-69" value="" style="shape=tableRow;horizontal=0;startSize=0;swimlaneHead=0;swimlaneBody=0;fillColor=none;collapsible=0;dropTarget=0;points=[[0,0.5],[1,0.5]];portConstraint=eastwest;top=0;left=0;right=0;bottom=1;sketch=1;curveFitting=1;jiggle=2;rounded=1;fontFamily=Lucida Console;labelBorderColor=none;textShadow=0;fontSize=13;" parent="CkwOvy4Y8bdaGsf6uyHz-68" vertex="1">
          <mxGeometry y="60" width="180" height="30" as="geometry" />
        </mxCell>
        <mxCell id="CkwOvy4Y8bdaGsf6uyHz-70" value="PK" style="shape=partialRectangle;connectable=0;fillColor=none;top=0;left=0;bottom=0;right=0;fontStyle=1;overflow=hidden;whiteSpace=wrap;html=1;sketch=1;curveFitting=1;jiggle=2;rounded=1;fontFamily=Lucida Console;labelBorderColor=none;textShadow=0;fontSize=13;" parent="CkwOvy4Y8bdaGsf6uyHz-69" vertex="1">
          <mxGeometry width="30" height="30" as="geometry">
            <mxRectangle width="30" height="30" as="alternateBounds" />
          </mxGeometry>
        </mxCell>
        <mxCell id="CkwOvy4Y8bdaGsf6uyHz-71" value="gameId" style="shape=partialRectangle;connectable=0;fillColor=none;top=0;left=0;bottom=0;right=0;align=left;spacingLeft=6;fontStyle=5;overflow=hidden;whiteSpace=wrap;html=1;sketch=1;curveFitting=1;jiggle=2;rounded=1;fontFamily=Lucida Console;labelBorderColor=none;textShadow=0;fontSize=13;" parent="CkwOvy4Y8bdaGsf6uyHz-69" vertex="1">
          <mxGeometry x="30" width="150" height="30" as="geometry">
            <mxRectangle width="150" height="30" as="alternateBounds" />
          </mxGeometry>
        </mxCell>
        <mxCell id="CkwOvy4Y8bdaGsf6uyHz-72" value="" style="shape=tableRow;horizontal=0;startSize=0;swimlaneHead=0;swimlaneBody=0;fillColor=none;collapsible=0;dropTarget=0;points=[[0,0.5],[1,0.5]];portConstraint=eastwest;top=0;left=0;right=0;bottom=0;sketch=1;curveFitting=1;jiggle=2;rounded=1;fontFamily=Lucida Console;labelBorderColor=none;textShadow=0;fontSize=13;" parent="CkwOvy4Y8bdaGsf6uyHz-68" vertex="1">
          <mxGeometry y="90" width="180" height="30" as="geometry" />
        </mxCell>
        <mxCell id="CkwOvy4Y8bdaGsf6uyHz-73" value="" style="shape=partialRectangle;connectable=0;fillColor=none;top=0;left=0;bottom=0;right=0;editable=1;overflow=hidden;whiteSpace=wrap;html=1;sketch=1;curveFitting=1;jiggle=2;rounded=1;fontFamily=Lucida Console;labelBorderColor=none;textShadow=0;fontSize=13;" parent="CkwOvy4Y8bdaGsf6uyHz-72" vertex="1">
          <mxGeometry width="30" height="30" as="geometry">
            <mxRectangle width="30" height="30" as="alternateBounds" />
          </mxGeometry>
        </mxCell>
        <mxCell id="CkwOvy4Y8bdaGsf6uyHz-74" value="tourNumber" style="shape=partialRectangle;connectable=0;fillColor=none;top=0;left=0;bottom=0;right=0;align=left;spacingLeft=6;overflow=hidden;whiteSpace=wrap;html=1;sketch=1;curveFitting=1;jiggle=2;rounded=1;fontFamily=Lucida Console;labelBorderColor=none;textShadow=0;fontSize=13;" parent="CkwOvy4Y8bdaGsf6uyHz-72" vertex="1">
          <mxGeometry x="30" width="150" height="30" as="geometry">
            <mxRectangle width="150" height="30" as="alternateBounds" />
          </mxGeometry>
        </mxCell>
        <mxCell id="CkwOvy4Y8bdaGsf6uyHz-110" value="" style="shape=tableRow;horizontal=0;startSize=0;swimlaneHead=0;swimlaneBody=0;fillColor=none;collapsible=0;dropTarget=0;points=[[0,0.5],[1,0.5]];portConstraint=eastwest;top=0;left=0;right=0;bottom=0;sketch=1;curveFitting=1;jiggle=2;rounded=1;fontFamily=Lucida Console;labelBorderColor=none;textShadow=0;fontSize=13;" parent="CkwOvy4Y8bdaGsf6uyHz-68" vertex="1">
          <mxGeometry y="120" width="180" height="30" as="geometry" />
        </mxCell>
        <mxCell id="CkwOvy4Y8bdaGsf6uyHz-111" value="" style="shape=partialRectangle;connectable=0;fillColor=none;top=0;left=0;bottom=0;right=0;editable=1;overflow=hidden;whiteSpace=wrap;html=1;sketch=1;curveFitting=1;jiggle=2;rounded=1;fontFamily=Lucida Console;labelBorderColor=none;textShadow=0;fontSize=13;" parent="CkwOvy4Y8bdaGsf6uyHz-110" vertex="1">
          <mxGeometry width="30" height="30" as="geometry">
            <mxRectangle width="30" height="30" as="alternateBounds" />
          </mxGeometry>
        </mxCell>
        <mxCell id="CkwOvy4Y8bdaGsf6uyHz-112" value="isSpecial" style="shape=partialRectangle;connectable=0;fillColor=none;top=0;left=0;bottom=0;right=0;align=left;spacingLeft=6;overflow=hidden;whiteSpace=wrap;html=1;sketch=1;curveFitting=1;jiggle=2;rounded=1;fontFamily=Lucida Console;labelBorderColor=none;textShadow=0;fontSize=13;" parent="CkwOvy4Y8bdaGsf6uyHz-110" vertex="1">
          <mxGeometry x="30" width="150" height="30" as="geometry">
            <mxRectangle width="150" height="30" as="alternateBounds" />
          </mxGeometry>
        </mxCell>
        <mxCell id="CkwOvy4Y8bdaGsf6uyHz-116" value="" style="shape=tableRow;horizontal=0;startSize=0;swimlaneHead=0;swimlaneBody=0;fillColor=none;collapsible=0;dropTarget=0;points=[[0,0.5],[1,0.5]];portConstraint=eastwest;top=0;left=0;right=0;bottom=0;sketch=1;curveFitting=1;jiggle=2;rounded=1;fontFamily=Lucida Console;labelBorderColor=none;textShadow=0;fontSize=13;" parent="CkwOvy4Y8bdaGsf6uyHz-68" vertex="1">
          <mxGeometry y="150" width="180" height="30" as="geometry" />
        </mxCell>
        <mxCell id="CkwOvy4Y8bdaGsf6uyHz-117" value="" style="shape=partialRectangle;connectable=0;fillColor=none;top=0;left=0;bottom=0;right=0;editable=1;overflow=hidden;whiteSpace=wrap;html=1;sketch=1;curveFitting=1;jiggle=2;rounded=1;fontFamily=Lucida Console;labelBorderColor=none;textShadow=0;fontSize=13;" parent="CkwOvy4Y8bdaGsf6uyHz-116" vertex="1">
          <mxGeometry width="30" height="30" as="geometry">
            <mxRectangle width="30" height="30" as="alternateBounds" />
          </mxGeometry>
        </mxCell>
        <mxCell id="CkwOvy4Y8bdaGsf6uyHz-118" value="question" style="shape=partialRectangle;connectable=0;fillColor=none;top=0;left=0;bottom=0;right=0;align=left;spacingLeft=6;overflow=hidden;whiteSpace=wrap;html=1;sketch=1;curveFitting=1;jiggle=2;rounded=1;fontFamily=Lucida Console;labelBorderColor=none;textShadow=0;fontSize=13;" parent="CkwOvy4Y8bdaGsf6uyHz-116" vertex="1">
          <mxGeometry x="30" width="150" height="30" as="geometry">
            <mxRectangle width="150" height="30" as="alternateBounds" />
          </mxGeometry>
        </mxCell>
        <mxCell id="KwlAjrvWtrrFdHhrgLwQ-2" style="edgeStyle=orthogonalEdgeStyle;rounded=0;orthogonalLoop=1;jettySize=auto;html=1;entryX=0.5;entryY=0;entryDx=0;entryDy=0;endArrow=none;endFill=0;startArrow=ERmany;startFill=0;" parent="1" source="CkwOvy4Y8bdaGsf6uyHz-86" target="CkwOvy4Y8bdaGsf6uyHz-18" edge="1">
          <mxGeometry relative="1" as="geometry">
            <Array as="points">
              <mxPoint x="750" y="480" />
              <mxPoint x="200" y="480" />
            </Array>
          </mxGeometry>
        </mxCell>
        <mxCell id="CkwOvy4Y8bdaGsf6uyHz-86" value="teams" style="shape=table;startSize=30;container=1;collapsible=1;childLayout=tableLayout;fixedRows=1;rowLines=0;fontStyle=1;align=center;resizeLast=1;html=1;rounded=0;fontFamily=Lucida Console;labelBorderColor=none;textShadow=0;fontSize=13;" parent="1" vertex="1">
          <mxGeometry x="660" y="370" width="180" height="90" as="geometry" />
        </mxCell>
        <mxCell id="CkwOvy4Y8bdaGsf6uyHz-87" value="" style="shape=tableRow;horizontal=0;startSize=0;swimlaneHead=0;swimlaneBody=0;fillColor=none;collapsible=0;dropTarget=0;points=[[0,0.5],[1,0.5]];portConstraint=eastwest;top=0;left=0;right=0;bottom=1;sketch=1;curveFitting=1;jiggle=2;rounded=1;fontFamily=Lucida Console;labelBorderColor=none;textShadow=0;fontSize=13;" parent="CkwOvy4Y8bdaGsf6uyHz-86" vertex="1">
          <mxGeometry y="30" width="180" height="30" as="geometry" />
        </mxCell>
        <mxCell id="CkwOvy4Y8bdaGsf6uyHz-88" value="PK" style="shape=partialRectangle;connectable=0;fillColor=none;top=0;left=0;bottom=0;right=0;fontStyle=1;overflow=hidden;whiteSpace=wrap;html=1;sketch=1;curveFitting=1;jiggle=2;rounded=1;fontFamily=Lucida Console;labelBorderColor=none;textShadow=0;fontSize=13;" parent="CkwOvy4Y8bdaGsf6uyHz-87" vertex="1">
          <mxGeometry width="30" height="30" as="geometry">
            <mxRectangle width="30" height="30" as="alternateBounds" />
          </mxGeometry>
        </mxCell>
        <mxCell id="CkwOvy4Y8bdaGsf6uyHz-89" value="Id" style="shape=partialRectangle;connectable=0;fillColor=none;top=0;left=0;bottom=0;right=0;align=left;spacingLeft=6;fontStyle=5;overflow=hidden;whiteSpace=wrap;html=1;sketch=1;curveFitting=1;jiggle=2;rounded=1;fontFamily=Lucida Console;labelBorderColor=none;textShadow=0;fontSize=13;" parent="CkwOvy4Y8bdaGsf6uyHz-87" vertex="1">
          <mxGeometry x="30" width="150" height="30" as="geometry">
            <mxRectangle width="150" height="30" as="alternateBounds" />
          </mxGeometry>
        </mxCell>
        <mxCell id="CkwOvy4Y8bdaGsf6uyHz-90" value="" style="shape=tableRow;horizontal=0;startSize=0;swimlaneHead=0;swimlaneBody=0;fillColor=none;collapsible=0;dropTarget=0;points=[[0,0.5],[1,0.5]];portConstraint=eastwest;top=0;left=0;right=0;bottom=0;sketch=1;curveFitting=1;jiggle=2;rounded=1;fontFamily=Lucida Console;labelBorderColor=none;textShadow=0;fontSize=13;" parent="CkwOvy4Y8bdaGsf6uyHz-86" vertex="1">
          <mxGeometry y="60" width="180" height="30" as="geometry" />
        </mxCell>
        <mxCell id="CkwOvy4Y8bdaGsf6uyHz-91" value="" style="shape=partialRectangle;connectable=0;fillColor=none;top=0;left=0;bottom=0;right=0;editable=1;overflow=hidden;whiteSpace=wrap;html=1;sketch=1;curveFitting=1;jiggle=2;rounded=1;fontFamily=Lucida Console;labelBorderColor=none;textShadow=0;fontSize=13;" parent="CkwOvy4Y8bdaGsf6uyHz-90" vertex="1">
          <mxGeometry width="30" height="30" as="geometry">
            <mxRectangle width="30" height="30" as="alternateBounds" />
          </mxGeometry>
        </mxCell>
        <mxCell id="CkwOvy4Y8bdaGsf6uyHz-92" value="name" style="shape=partialRectangle;connectable=0;fillColor=none;top=0;left=0;bottom=0;right=0;align=left;spacingLeft=6;overflow=hidden;whiteSpace=wrap;html=1;sketch=1;curveFitting=1;jiggle=2;rounded=1;fontFamily=Lucida Console;labelBorderColor=none;textShadow=0;fontSize=13;" parent="CkwOvy4Y8bdaGsf6uyHz-90" vertex="1">
          <mxGeometry x="30" width="150" height="30" as="geometry">
            <mxRectangle width="150" height="30" as="alternateBounds" />
          </mxGeometry>
        </mxCell>
        <mxCell id="CkwOvy4Y8bdaGsf6uyHz-133" value="winners" style="shape=table;startSize=30;container=1;collapsible=1;childLayout=tableLayout;fixedRows=1;rowLines=0;fontStyle=1;align=center;resizeLast=1;html=1;rounded=0;fontFamily=Lucida Console;labelBorderColor=none;textShadow=0;fontSize=13;swimlaneLine=1;" parent="1" vertex="1">
          <mxGeometry x="930" y="440" width="180" height="90" as="geometry">
            <mxRectangle x="80" y="90" width="70" height="30" as="alternateBounds" />
          </mxGeometry>
        </mxCell>
        <mxCell id="CkwOvy4Y8bdaGsf6uyHz-134" value="" style="shape=tableRow;horizontal=0;startSize=0;swimlaneHead=0;swimlaneBody=0;fillColor=none;collapsible=0;dropTarget=0;points=[[0,0.5],[1,0.5]];portConstraint=eastwest;top=0;left=0;right=0;bottom=1;rounded=1;fontFamily=Lucida Console;labelBorderColor=none;textShadow=0;fontSize=13;" parent="CkwOvy4Y8bdaGsf6uyHz-133" vertex="1">
          <mxGeometry y="30" width="180" height="30" as="geometry" />
        </mxCell>
        <mxCell id="CkwOvy4Y8bdaGsf6uyHz-135" value="PK" style="shape=partialRectangle;connectable=0;fillColor=none;top=0;left=0;bottom=0;right=0;fontStyle=1;overflow=hidden;whiteSpace=wrap;html=1;sketch=1;curveFitting=1;jiggle=2;rounded=1;fontFamily=Lucida Console;labelBorderColor=none;textShadow=0;fontSize=13;" parent="CkwOvy4Y8bdaGsf6uyHz-134" vertex="1">
          <mxGeometry width="30" height="30" as="geometry">
            <mxRectangle width="30" height="30" as="alternateBounds" />
          </mxGeometry>
        </mxCell>
        <mxCell id="CkwOvy4Y8bdaGsf6uyHz-136" value="teamId" style="shape=partialRectangle;connectable=0;fillColor=none;top=0;left=0;bottom=0;right=0;align=left;spacingLeft=6;fontStyle=5;overflow=hidden;whiteSpace=wrap;html=1;rounded=1;fontFamily=Lucida Console;labelBorderColor=none;textShadow=0;fontSize=13;" parent="CkwOvy4Y8bdaGsf6uyHz-134" vertex="1">
          <mxGeometry x="30" width="150" height="30" as="geometry">
            <mxRectangle width="150" height="30" as="alternateBounds" />
          </mxGeometry>
        </mxCell>
        <mxCell id="CkwOvy4Y8bdaGsf6uyHz-137" value="" style="shape=tableRow;horizontal=0;startSize=0;swimlaneHead=0;swimlaneBody=0;fillColor=none;collapsible=0;dropTarget=0;points=[[0,0.5],[1,0.5]];portConstraint=eastwest;top=0;left=0;right=0;bottom=1;rounded=1;fontFamily=Lucida Console;labelBorderColor=none;textShadow=0;fontSize=13;" parent="CkwOvy4Y8bdaGsf6uyHz-133" vertex="1">
          <mxGeometry y="60" width="180" height="30" as="geometry" />
        </mxCell>
        <mxCell id="CkwOvy4Y8bdaGsf6uyHz-138" value="PK" style="shape=partialRectangle;connectable=0;fillColor=none;top=0;left=0;bottom=0;right=0;fontStyle=1;overflow=hidden;whiteSpace=wrap;html=1;sketch=1;curveFitting=1;jiggle=2;rounded=1;fontFamily=Lucida Console;labelBorderColor=none;textShadow=0;fontSize=13;" parent="CkwOvy4Y8bdaGsf6uyHz-137" vertex="1">
          <mxGeometry width="30" height="30" as="geometry">
            <mxRectangle width="30" height="30" as="alternateBounds" />
          </mxGeometry>
        </mxCell>
        <mxCell id="CkwOvy4Y8bdaGsf6uyHz-139" value="gameId" style="shape=partialRectangle;connectable=0;fillColor=none;top=0;left=0;bottom=0;right=0;align=left;spacingLeft=6;fontStyle=5;overflow=hidden;whiteSpace=wrap;html=1;rounded=1;fontFamily=Lucida Console;labelBorderColor=none;textShadow=0;fontSize=13;" parent="CkwOvy4Y8bdaGsf6uyHz-137" vertex="1">
          <mxGeometry x="30" width="150" height="30" as="geometry">
            <mxRectangle width="150" height="30" as="alternateBounds" />
          </mxGeometry>
        </mxCell>
        <mxCell id="CkwOvy4Y8bdaGsf6uyHz-159" value="tourWinners" style="shape=table;startSize=30;container=1;collapsible=1;childLayout=tableLayout;fixedRows=1;rowLines=0;fontStyle=1;align=center;resizeLast=1;html=1;rounded=0;fontFamily=Lucida Console;labelBorderColor=none;textShadow=0;fontSize=13;" parent="1" vertex="1">
          <mxGeometry x="530" y="80" width="180" height="151" as="geometry">
            <mxRectangle x="80" y="90" width="70" height="30" as="alternateBounds" />
          </mxGeometry>
        </mxCell>
        <mxCell id="CkwOvy4Y8bdaGsf6uyHz-160" value="" style="shape=tableRow;horizontal=0;startSize=0;swimlaneHead=0;swimlaneBody=0;fillColor=none;collapsible=0;dropTarget=0;points=[[0,0.5],[1,0.5]];portConstraint=eastwest;top=0;left=0;right=0;bottom=1;rounded=0;fontFamily=Lucida Console;labelBorderColor=none;textShadow=0;fontSize=13;" parent="CkwOvy4Y8bdaGsf6uyHz-159" vertex="1">
          <mxGeometry y="30" width="180" height="31" as="geometry" />
        </mxCell>
        <mxCell id="CkwOvy4Y8bdaGsf6uyHz-161" value="PK" style="shape=partialRectangle;connectable=0;fillColor=none;top=0;left=0;bottom=0;right=0;fontStyle=1;overflow=hidden;whiteSpace=wrap;html=1;sketch=1;curveFitting=1;jiggle=2;rounded=1;fontFamily=Lucida Console;labelBorderColor=none;textShadow=0;fontSize=13;" parent="CkwOvy4Y8bdaGsf6uyHz-160" vertex="1">
          <mxGeometry width="30" height="31" as="geometry">
            <mxRectangle width="30" height="31" as="alternateBounds" />
          </mxGeometry>
        </mxCell>
        <mxCell id="CkwOvy4Y8bdaGsf6uyHz-162" value="tourId" style="shape=partialRectangle;connectable=0;fillColor=none;top=0;left=0;bottom=0;right=0;align=left;spacingLeft=6;fontStyle=5;overflow=hidden;whiteSpace=wrap;html=1;rounded=1;fontFamily=Lucida Console;labelBorderColor=none;textShadow=0;fontSize=13;" parent="CkwOvy4Y8bdaGsf6uyHz-160" vertex="1">
          <mxGeometry x="30" width="150" height="31" as="geometry">
            <mxRectangle width="150" height="31" as="alternateBounds" />
          </mxGeometry>
        </mxCell>
        <mxCell id="CkwOvy4Y8bdaGsf6uyHz-163" value="" style="shape=tableRow;horizontal=0;startSize=0;swimlaneHead=0;swimlaneBody=0;fillColor=none;collapsible=0;dropTarget=0;points=[[0,0.5],[1,0.5]];portConstraint=eastwest;top=0;left=0;right=0;bottom=1;rounded=1;fontFamily=Lucida Console;labelBorderColor=none;textShadow=0;fontSize=13;" parent="CkwOvy4Y8bdaGsf6uyHz-159" vertex="1">
          <mxGeometry y="61" width="180" height="30" as="geometry" />
        </mxCell>
        <mxCell id="CkwOvy4Y8bdaGsf6uyHz-164" value="PK" style="shape=partialRectangle;connectable=0;fillColor=none;top=0;left=0;bottom=0;right=0;fontStyle=1;overflow=hidden;whiteSpace=wrap;html=1;sketch=1;curveFitting=1;jiggle=2;rounded=1;fontFamily=Lucida Console;labelBorderColor=none;textShadow=0;fontSize=13;" parent="CkwOvy4Y8bdaGsf6uyHz-163" vertex="1">
          <mxGeometry width="30" height="30" as="geometry">
            <mxRectangle width="30" height="30" as="alternateBounds" />
          </mxGeometry>
        </mxCell>
        <mxCell id="CkwOvy4Y8bdaGsf6uyHz-165" value="teamId" style="shape=partialRectangle;connectable=0;fillColor=none;top=0;left=0;bottom=0;right=0;align=left;spacingLeft=6;fontStyle=5;overflow=hidden;whiteSpace=wrap;html=1;rounded=1;fontFamily=Lucida Console;labelBorderColor=none;textShadow=0;fontSize=13;" parent="CkwOvy4Y8bdaGsf6uyHz-163" vertex="1">
          <mxGeometry x="30" width="150" height="30" as="geometry">
            <mxRectangle width="150" height="30" as="alternateBounds" />
          </mxGeometry>
        </mxCell>
        <mxCell id="CkwOvy4Y8bdaGsf6uyHz-166" value="" style="shape=tableRow;horizontal=0;startSize=0;swimlaneHead=0;swimlaneBody=0;fillColor=none;collapsible=0;dropTarget=0;points=[[0,0.5],[1,0.5]];portConstraint=eastwest;top=0;left=0;right=0;bottom=0;rounded=1;fontFamily=Lucida Console;labelBorderColor=none;textShadow=0;fontSize=13;" parent="CkwOvy4Y8bdaGsf6uyHz-159" vertex="1">
          <mxGeometry y="91" width="180" height="30" as="geometry" />
        </mxCell>
        <mxCell id="CkwOvy4Y8bdaGsf6uyHz-167" value="" style="shape=partialRectangle;connectable=0;fillColor=none;top=0;left=0;bottom=0;right=0;editable=1;overflow=hidden;whiteSpace=wrap;html=1;sketch=1;curveFitting=1;jiggle=2;rounded=1;fontFamily=Lucida Console;labelBorderColor=none;textShadow=0;fontSize=13;" parent="CkwOvy4Y8bdaGsf6uyHz-166" vertex="1">
          <mxGeometry width="30" height="30" as="geometry">
            <mxRectangle width="30" height="30" as="alternateBounds" />
          </mxGeometry>
        </mxCell>
        <mxCell id="CkwOvy4Y8bdaGsf6uyHz-168" value="points" style="shape=partialRectangle;connectable=0;fillColor=none;top=0;left=0;bottom=0;right=0;align=left;spacingLeft=6;overflow=hidden;whiteSpace=wrap;html=1;rounded=1;fontFamily=Lucida Console;labelBorderColor=none;textShadow=0;fontSize=13;" parent="CkwOvy4Y8bdaGsf6uyHz-166" vertex="1">
          <mxGeometry x="30" width="150" height="30" as="geometry">
            <mxRectangle width="150" height="30" as="alternateBounds" />
          </mxGeometry>
        </mxCell>
        <mxCell id="CkwOvy4Y8bdaGsf6uyHz-187" value="" style="shape=tableRow;horizontal=0;startSize=0;swimlaneHead=0;swimlaneBody=0;fillColor=none;collapsible=0;dropTarget=0;points=[[0,0.5],[1,0.5]];portConstraint=eastwest;top=0;left=0;right=0;bottom=0;sketch=1;curveFitting=1;jiggle=2;rounded=1;fontFamily=Lucida Console;labelBorderColor=none;textShadow=0;fontSize=13;" parent="CkwOvy4Y8bdaGsf6uyHz-159" vertex="1">
          <mxGeometry y="121" width="180" height="30" as="geometry" />
        </mxCell>
        <mxCell id="CkwOvy4Y8bdaGsf6uyHz-188" value="" style="shape=partialRectangle;connectable=0;fillColor=none;top=0;left=0;bottom=0;right=0;editable=1;overflow=hidden;whiteSpace=wrap;html=1;sketch=1;curveFitting=1;jiggle=2;rounded=1;fontFamily=Lucida Console;labelBorderColor=none;textShadow=0;fontSize=13;" parent="CkwOvy4Y8bdaGsf6uyHz-187" vertex="1">
          <mxGeometry width="30" height="30" as="geometry">
            <mxRectangle width="30" height="30" as="alternateBounds" />
          </mxGeometry>
        </mxCell>
        <mxCell id="CkwOvy4Y8bdaGsf6uyHz-189" value="answer" style="shape=partialRectangle;connectable=0;fillColor=none;top=0;left=0;bottom=0;right=0;align=left;spacingLeft=6;overflow=hidden;whiteSpace=wrap;html=1;sketch=1;curveFitting=1;jiggle=2;rounded=1;fontFamily=Lucida Console;labelBorderColor=none;textShadow=0;fontSize=13;" parent="CkwOvy4Y8bdaGsf6uyHz-187" vertex="1">
          <mxGeometry x="30" width="150" height="30" as="geometry">
            <mxRectangle width="150" height="30" as="alternateBounds" />
          </mxGeometry>
        </mxCell>
        <mxCell id="CkwOvy4Y8bdaGsf6uyHz-227" value="teamGames" style="shape=table;startSize=30;container=1;collapsible=1;childLayout=tableLayout;fixedRows=1;rowLines=0;fontStyle=1;align=center;resizeLast=1;html=1;rounded=0;fontFamily=Lucida Console;labelBorderColor=none;textShadow=0;fontSize=13;" parent="1" vertex="1">
          <mxGeometry x="660" y="640" width="180" height="91.00000000000011" as="geometry" />
        </mxCell>
        <mxCell id="CkwOvy4Y8bdaGsf6uyHz-228" value="" style="shape=tableRow;horizontal=0;startSize=0;swimlaneHead=0;swimlaneBody=0;fillColor=none;collapsible=0;dropTarget=0;points=[[0,0.5],[1,0.5]];portConstraint=eastwest;top=0;left=0;right=0;bottom=1;rounded=1;fontFamily=Lucida Console;labelBorderColor=none;textShadow=0;fontSize=13;" parent="CkwOvy4Y8bdaGsf6uyHz-227" vertex="1">
          <mxGeometry y="30" width="180" height="31" as="geometry" />
        </mxCell>
        <mxCell id="CkwOvy4Y8bdaGsf6uyHz-229" value="PK" style="shape=partialRectangle;connectable=0;fillColor=none;top=0;left=0;bottom=0;right=0;fontStyle=1;overflow=hidden;whiteSpace=wrap;html=1;sketch=1;curveFitting=1;jiggle=2;rounded=1;fontFamily=Lucida Console;labelBorderColor=none;textShadow=0;fontSize=13;" parent="CkwOvy4Y8bdaGsf6uyHz-228" vertex="1">
          <mxGeometry width="30" height="31" as="geometry">
            <mxRectangle width="30" height="31" as="alternateBounds" />
          </mxGeometry>
        </mxCell>
        <mxCell id="CkwOvy4Y8bdaGsf6uyHz-230" value="teamId" style="shape=partialRectangle;connectable=0;fillColor=none;top=0;left=0;bottom=0;right=0;align=left;spacingLeft=6;fontStyle=5;overflow=hidden;whiteSpace=wrap;html=1;rounded=1;fontFamily=Lucida Console;labelBorderColor=none;textShadow=0;fontSize=13;" parent="CkwOvy4Y8bdaGsf6uyHz-228" vertex="1">
          <mxGeometry x="30" width="150" height="31" as="geometry">
            <mxRectangle width="150" height="31" as="alternateBounds" />
          </mxGeometry>
        </mxCell>
        <mxCell id="CkwOvy4Y8bdaGsf6uyHz-231" value="" style="shape=tableRow;horizontal=0;startSize=0;swimlaneHead=0;swimlaneBody=0;fillColor=none;collapsible=0;dropTarget=0;points=[[0,0.5],[1,0.5]];portConstraint=eastwest;top=0;left=0;right=0;bottom=1;sketch=1;curveFitting=1;jiggle=2;rounded=1;fontFamily=Lucida Console;labelBorderColor=none;textShadow=0;fontSize=13;" parent="CkwOvy4Y8bdaGsf6uyHz-227" vertex="1">
          <mxGeometry y="61" width="180" height="30" as="geometry" />
        </mxCell>
        <mxCell id="CkwOvy4Y8bdaGsf6uyHz-232" value="PK" style="shape=partialRectangle;connectable=0;fillColor=none;top=0;left=0;bottom=0;right=0;fontStyle=1;overflow=hidden;whiteSpace=wrap;html=1;sketch=1;curveFitting=1;jiggle=2;rounded=1;fontFamily=Lucida Console;labelBorderColor=none;textShadow=0;fontSize=13;" parent="CkwOvy4Y8bdaGsf6uyHz-231" vertex="1">
          <mxGeometry width="30" height="30" as="geometry">
            <mxRectangle width="30" height="30" as="alternateBounds" />
          </mxGeometry>
        </mxCell>
        <mxCell id="CkwOvy4Y8bdaGsf6uyHz-233" value="gameId" style="shape=partialRectangle;connectable=0;fillColor=none;top=0;left=0;bottom=0;right=0;align=left;spacingLeft=6;fontStyle=5;overflow=hidden;whiteSpace=wrap;html=1;rounded=1;fontFamily=Lucida Console;labelBorderColor=none;textShadow=0;fontSize=13;" parent="CkwOvy4Y8bdaGsf6uyHz-231" vertex="1">
          <mxGeometry x="30" width="150" height="30" as="geometry">
            <mxRectangle width="150" height="30" as="alternateBounds" />
          </mxGeometry>
        </mxCell>
        <mxCell id="IeIykQsxxg3vqtBiJwkK-4" style="edgeStyle=orthogonalEdgeStyle;rounded=0;orthogonalLoop=1;jettySize=auto;html=1;exitX=1;exitY=0.5;exitDx=0;exitDy=0;entryX=1;entryY=0.5;entryDx=0;entryDy=0;fontFamily=Lucida Console;fontSize=13;fontColor=default;fontStyle=1;labelBorderColor=none;endArrow=ERmany;endFill=0;" parent="1" source="CkwOvy4Y8bdaGsf6uyHz-87" target="CkwOvy4Y8bdaGsf6uyHz-228" edge="1">
          <mxGeometry relative="1" as="geometry" />
        </mxCell>
        <mxCell id="IeIykQsxxg3vqtBiJwkK-5" style="edgeStyle=orthogonalEdgeStyle;rounded=0;orthogonalLoop=1;jettySize=auto;html=1;exitX=1;exitY=0.5;exitDx=0;exitDy=0;fontFamily=Lucida Console;fontSize=13;fontColor=default;fontStyle=1;labelBorderColor=none;endArrow=none;endFill=0;startArrow=ERmany;startFill=0;entryX=0;entryY=0.5;entryDx=0;entryDy=0;" parent="1" source="CkwOvy4Y8bdaGsf6uyHz-69" target="CkwOvy4Y8bdaGsf6uyHz-3" edge="1">
          <mxGeometry relative="1" as="geometry">
            <Array as="points">
              <mxPoint x="390" y="195" />
              <mxPoint x="390" y="250" />
              <mxPoint x="740" y="250" />
              <mxPoint x="740" y="215" />
            </Array>
          </mxGeometry>
        </mxCell>
        <mxCell id="IeIykQsxxg3vqtBiJwkK-8" style="edgeStyle=orthogonalEdgeStyle;rounded=0;orthogonalLoop=1;jettySize=auto;html=1;exitX=1;exitY=0.5;exitDx=0;exitDy=0;entryX=0;entryY=0.5;entryDx=0;entryDy=0;fontFamily=Lucida Console;fontSize=13;fontColor=default;fontStyle=1;labelBorderColor=none;endArrow=ERmany;endFill=0;" parent="1" source="CkwOvy4Y8bdaGsf6uyHz-19" target="CkwOvy4Y8bdaGsf6uyHz-6" edge="1">
          <mxGeometry relative="1" as="geometry">
            <Array as="points">
              <mxPoint x="340" y="586" />
              <mxPoint x="340" y="330" />
              <mxPoint x="800" y="330" />
              <mxPoint x="800" y="245" />
            </Array>
          </mxGeometry>
        </mxCell>
        <mxCell id="IeIykQsxxg3vqtBiJwkK-9" style="edgeStyle=orthogonalEdgeStyle;rounded=0;orthogonalLoop=1;jettySize=auto;html=1;exitX=1;exitY=0.5;exitDx=0;exitDy=0;entryX=1;entryY=0.5;entryDx=0;entryDy=0;fontFamily=Lucida Console;fontSize=13;fontColor=default;fontStyle=1;labelBorderColor=none;endArrow=none;endFill=0;" parent="1" source="CkwOvy4Y8bdaGsf6uyHz-82" target="CkwOvy4Y8bdaGsf6uyHz-160" edge="1">
          <mxGeometry relative="1" as="geometry">
            <Array as="points">
              <mxPoint x="330" y="60" />
              <mxPoint x="730" y="60" />
              <mxPoint x="730" y="125" />
            </Array>
          </mxGeometry>
        </mxCell>
        <mxCell id="IeIykQsxxg3vqtBiJwkK-10" style="edgeStyle=orthogonalEdgeStyle;rounded=0;orthogonalLoop=1;jettySize=auto;html=1;exitX=0;exitY=0.5;exitDx=0;exitDy=0;entryX=1;entryY=0.5;entryDx=0;entryDy=0;fontFamily=Lucida Console;fontSize=13;fontColor=default;fontStyle=1;labelBorderColor=none;endArrow=none;endFill=0;startArrow=ERmany;startFill=0;" parent="1" source="CkwOvy4Y8bdaGsf6uyHz-134" target="CkwOvy4Y8bdaGsf6uyHz-87" edge="1">
          <mxGeometry relative="1" as="geometry" />
        </mxCell>
        <mxCell id="IeIykQsxxg3vqtBiJwkK-11" style="edgeStyle=orthogonalEdgeStyle;rounded=0;orthogonalLoop=1;jettySize=auto;html=1;exitX=1;exitY=0.5;exitDx=0;exitDy=0;entryX=1;entryY=0.5;entryDx=0;entryDy=0;fontFamily=Lucida Console;fontSize=13;fontColor=default;fontStyle=1;labelBorderColor=none;endArrow=ERmany;endFill=0;" parent="1" source="CkwOvy4Y8bdaGsf6uyHz-3" target="CkwOvy4Y8bdaGsf6uyHz-137" edge="1">
          <mxGeometry relative="1" as="geometry" />
        </mxCell>
      </root>
    </mxGraphModel>
  </diagram>
  <diagram id="4aK_Wb-lMveo-kUU8h_W" name="Страница — 2">
    <mxGraphModel dx="1183" dy="700" grid="1" gridSize="10" guides="1" tooltips="1" connect="1" arrows="1" fold="1" page="1" pageScale="1" pageWidth="1169" pageHeight="827" math="0" shadow="0">
      <root>
        <mxCell id="0" />
        <mxCell id="1" parent="0" />
        <mxCell id="Q8bDi00EePtrH43vO3di-1" value="Team" style="swimlane;fontStyle=2;align=center;verticalAlign=top;childLayout=stackLayout;horizontal=1;startSize=26;horizontalStack=0;resizeParent=1;resizeLast=0;collapsible=1;marginBottom=0;rounded=0;shadow=0;strokeWidth=1;" vertex="1" parent="1">
          <mxGeometry x="570" y="42" width="160" height="108" as="geometry">
            <mxRectangle x="230" y="140" width="160" height="26" as="alternateBounds" />
          </mxGeometry>
        </mxCell>
        <mxCell id="Q8bDi00EePtrH43vO3di-2" value="Long id" style="text;align=left;verticalAlign=top;spacingLeft=4;spacingRight=4;overflow=hidden;rotatable=0;points=[[0,0.5],[1,0.5]];portConstraint=eastwest;" vertex="1" parent="Q8bDi00EePtrH43vO3di-1">
          <mxGeometry y="26" width="160" height="26" as="geometry" />
        </mxCell>
        <mxCell id="Q8bDi00EePtrH43vO3di-3" value="String name" style="text;align=left;verticalAlign=top;spacingLeft=4;spacingRight=4;overflow=hidden;rotatable=0;points=[[0,0.5],[1,0.5]];portConstraint=eastwest;rounded=0;shadow=0;html=0;" vertex="1" parent="Q8bDi00EePtrH43vO3di-1">
          <mxGeometry y="52" width="160" height="26" as="geometry" />
        </mxCell>
        <mxCell id="Q8bDi00EePtrH43vO3di-4" value="List&lt;User&gt; users" style="text;align=left;verticalAlign=top;spacingLeft=4;spacingRight=4;overflow=hidden;rotatable=0;points=[[0,0.5],[1,0.5]];portConstraint=eastwest;rounded=0;shadow=0;html=0;" vertex="1" parent="Q8bDi00EePtrH43vO3di-1">
          <mxGeometry y="78" width="160" height="26" as="geometry" />
        </mxCell>
        <mxCell id="Q8bDi00EePtrH43vO3di-7" value="User" style="swimlane;fontStyle=0;align=center;verticalAlign=top;childLayout=stackLayout;horizontal=1;startSize=26;horizontalStack=0;resizeParent=1;resizeLast=0;collapsible=1;marginBottom=0;rounded=0;shadow=0;strokeWidth=1;" vertex="1" parent="1">
          <mxGeometry x="20" y="60" width="160" height="156" as="geometry">
            <mxRectangle x="100" y="42" width="160" height="26" as="alternateBounds" />
          </mxGeometry>
        </mxCell>
        <mxCell id="Q8bDi00EePtrH43vO3di-8" value="Long id" style="text;align=left;verticalAlign=top;spacingLeft=4;spacingRight=4;overflow=hidden;rotatable=0;points=[[0,0.5],[1,0.5]];portConstraint=eastwest;" vertex="1" parent="Q8bDi00EePtrH43vO3di-7">
          <mxGeometry y="26" width="160" height="26" as="geometry" />
        </mxCell>
        <mxCell id="Q8bDi00EePtrH43vO3di-9" value="String name" style="text;align=left;verticalAlign=top;spacingLeft=4;spacingRight=4;overflow=hidden;rotatable=0;points=[[0,0.5],[1,0.5]];portConstraint=eastwest;rounded=0;shadow=0;html=0;" vertex="1" parent="Q8bDi00EePtrH43vO3di-7">
          <mxGeometry y="52" width="160" height="26" as="geometry" />
        </mxCell>
        <mxCell id="Q8bDi00EePtrH43vO3di-12" value="String surname" style="text;align=left;verticalAlign=top;spacingLeft=4;spacingRight=4;overflow=hidden;rotatable=0;points=[[0,0.5],[1,0.5]];portConstraint=eastwest;" vertex="1" parent="Q8bDi00EePtrH43vO3di-7">
          <mxGeometry y="78" width="160" height="26" as="geometry" />
        </mxCell>
        <mxCell id="Q8bDi00EePtrH43vO3di-38" value="String email" style="text;align=left;verticalAlign=top;spacingLeft=4;spacingRight=4;overflow=hidden;rotatable=0;points=[[0,0.5],[1,0.5]];portConstraint=eastwest;" vertex="1" parent="Q8bDi00EePtrH43vO3di-7">
          <mxGeometry y="104" width="160" height="26" as="geometry" />
        </mxCell>
        <mxCell id="Q8bDi00EePtrH43vO3di-39" value="Team team" style="text;align=left;verticalAlign=top;spacingLeft=4;spacingRight=4;overflow=hidden;rotatable=0;points=[[0,0.5],[1,0.5]];portConstraint=eastwest;" vertex="1" parent="Q8bDi00EePtrH43vO3di-7">
          <mxGeometry y="130" width="160" height="26" as="geometry" />
        </mxCell>
        <mxCell id="Q8bDi00EePtrH43vO3di-41" value="UserDto" style="swimlane;fontStyle=0;align=center;verticalAlign=top;childLayout=stackLayout;horizontal=1;startSize=26;horizontalStack=0;resizeParent=1;resizeLast=0;collapsible=1;marginBottom=0;rounded=0;shadow=0;strokeWidth=1;" vertex="1" parent="1">
          <mxGeometry x="20" y="250" width="160" height="104" as="geometry">
            <mxRectangle x="130" y="380" width="160" height="26" as="alternateBounds" />
          </mxGeometry>
        </mxCell>
        <mxCell id="Q8bDi00EePtrH43vO3di-42" value="Long id" style="text;align=left;verticalAlign=top;spacingLeft=4;spacingRight=4;overflow=hidden;rotatable=0;points=[[0,0.5],[1,0.5]];portConstraint=eastwest;" vertex="1" parent="Q8bDi00EePtrH43vO3di-41">
          <mxGeometry y="26" width="160" height="26" as="geometry" />
        </mxCell>
        <mxCell id="Q8bDi00EePtrH43vO3di-43" value="String name" style="text;align=left;verticalAlign=top;spacingLeft=4;spacingRight=4;overflow=hidden;rotatable=0;points=[[0,0.5],[1,0.5]];portConstraint=eastwest;rounded=0;shadow=0;html=0;" vertex="1" parent="Q8bDi00EePtrH43vO3di-41">
          <mxGeometry y="52" width="160" height="26" as="geometry" />
        </mxCell>
        <mxCell id="Q8bDi00EePtrH43vO3di-44" value="String surname" style="text;align=left;verticalAlign=top;spacingLeft=4;spacingRight=4;overflow=hidden;rotatable=0;points=[[0,0.5],[1,0.5]];portConstraint=eastwest;" vertex="1" parent="Q8bDi00EePtrH43vO3di-41">
          <mxGeometry y="78" width="160" height="26" as="geometry" />
        </mxCell>
        <mxCell id="Q8bDi00EePtrH43vO3di-47" value="UserReceivedDto" style="swimlane;fontStyle=0;align=center;verticalAlign=top;childLayout=stackLayout;horizontal=1;startSize=26;horizontalStack=0;resizeParent=1;resizeLast=0;collapsible=1;marginBottom=0;rounded=0;shadow=0;strokeWidth=1;" vertex="1" parent="1">
          <mxGeometry x="20" y="370" width="160" height="104" as="geometry">
            <mxRectangle x="130" y="380" width="160" height="26" as="alternateBounds" />
          </mxGeometry>
        </mxCell>
        <mxCell id="Q8bDi00EePtrH43vO3di-51" value="String email" style="text;align=left;verticalAlign=top;spacingLeft=4;spacingRight=4;overflow=hidden;rotatable=0;points=[[0,0.5],[1,0.5]];portConstraint=eastwest;" vertex="1" parent="Q8bDi00EePtrH43vO3di-47">
          <mxGeometry y="26" width="160" height="26" as="geometry" />
        </mxCell>
        <mxCell id="Q8bDi00EePtrH43vO3di-49" value="String name" style="text;align=left;verticalAlign=top;spacingLeft=4;spacingRight=4;overflow=hidden;rotatable=0;points=[[0,0.5],[1,0.5]];portConstraint=eastwest;rounded=0;shadow=0;html=0;" vertex="1" parent="Q8bDi00EePtrH43vO3di-47">
          <mxGeometry y="52" width="160" height="26" as="geometry" />
        </mxCell>
        <mxCell id="Q8bDi00EePtrH43vO3di-50" value="String surname" style="text;align=left;verticalAlign=top;spacingLeft=4;spacingRight=4;overflow=hidden;rotatable=0;points=[[0,0.5],[1,0.5]];portConstraint=eastwest;" vertex="1" parent="Q8bDi00EePtrH43vO3di-47">
          <mxGeometry y="78" width="160" height="26" as="geometry" />
        </mxCell>
        <mxCell id="Q8bDi00EePtrH43vO3di-57" value="UserTeamDto&#xa;" style="swimlane;fontStyle=0;align=center;verticalAlign=top;childLayout=stackLayout;horizontal=1;startSize=26;horizontalStack=0;resizeParent=1;resizeLast=0;collapsible=1;marginBottom=0;rounded=0;shadow=0;strokeWidth=1;" vertex="1" parent="1">
          <mxGeometry x="20" y="490" width="160" height="156" as="geometry">
            <mxRectangle x="130" y="380" width="160" height="26" as="alternateBounds" />
          </mxGeometry>
        </mxCell>
        <mxCell id="Q8bDi00EePtrH43vO3di-58" value="Long id" style="text;align=left;verticalAlign=top;spacingLeft=4;spacingRight=4;overflow=hidden;rotatable=0;points=[[0,0.5],[1,0.5]];portConstraint=eastwest;" vertex="1" parent="Q8bDi00EePtrH43vO3di-57">
          <mxGeometry y="26" width="160" height="26" as="geometry" />
        </mxCell>
        <mxCell id="Q8bDi00EePtrH43vO3di-59" value="String name" style="text;align=left;verticalAlign=top;spacingLeft=4;spacingRight=4;overflow=hidden;rotatable=0;points=[[0,0.5],[1,0.5]];portConstraint=eastwest;rounded=0;shadow=0;html=0;" vertex="1" parent="Q8bDi00EePtrH43vO3di-57">
          <mxGeometry y="52" width="160" height="26" as="geometry" />
        </mxCell>
        <mxCell id="Q8bDi00EePtrH43vO3di-60" value="String surname" style="text;align=left;verticalAlign=top;spacingLeft=4;spacingRight=4;overflow=hidden;rotatable=0;points=[[0,0.5],[1,0.5]];portConstraint=eastwest;" vertex="1" parent="Q8bDi00EePtrH43vO3di-57">
          <mxGeometry y="78" width="160" height="26" as="geometry" />
        </mxCell>
        <mxCell id="Q8bDi00EePtrH43vO3di-61" value="String email" style="text;align=left;verticalAlign=top;spacingLeft=4;spacingRight=4;overflow=hidden;rotatable=0;points=[[0,0.5],[1,0.5]];portConstraint=eastwest;" vertex="1" parent="Q8bDi00EePtrH43vO3di-57">
          <mxGeometry y="104" width="160" height="26" as="geometry" />
        </mxCell>
        <mxCell id="Q8bDi00EePtrH43vO3di-62" value="Team team" style="text;align=left;verticalAlign=top;spacingLeft=4;spacingRight=4;overflow=hidden;rotatable=0;points=[[0,0.5],[1,0.5]];portConstraint=eastwest;" vertex="1" parent="Q8bDi00EePtrH43vO3di-57">
          <mxGeometry y="130" width="160" height="26" as="geometry" />
        </mxCell>
        <mxCell id="Q8bDi00EePtrH43vO3di-63" value="TeamUserListDto" style="swimlane;fontStyle=2;align=center;verticalAlign=top;childLayout=stackLayout;horizontal=1;startSize=26;horizontalStack=0;resizeParent=1;resizeLast=0;collapsible=1;marginBottom=0;rounded=0;shadow=0;strokeWidth=1;" vertex="1" parent="1">
          <mxGeometry x="570" y="250" width="160" height="108" as="geometry">
            <mxRectangle x="230" y="140" width="160" height="26" as="alternateBounds" />
          </mxGeometry>
        </mxCell>
        <mxCell id="Q8bDi00EePtrH43vO3di-64" value="Long id" style="text;align=left;verticalAlign=top;spacingLeft=4;spacingRight=4;overflow=hidden;rotatable=0;points=[[0,0.5],[1,0.5]];portConstraint=eastwest;" vertex="1" parent="Q8bDi00EePtrH43vO3di-63">
          <mxGeometry y="26" width="160" height="26" as="geometry" />
        </mxCell>
        <mxCell id="Q8bDi00EePtrH43vO3di-65" value="String name" style="text;align=left;verticalAlign=top;spacingLeft=4;spacingRight=4;overflow=hidden;rotatable=0;points=[[0,0.5],[1,0.5]];portConstraint=eastwest;rounded=0;shadow=0;html=0;" vertex="1" parent="Q8bDi00EePtrH43vO3di-63">
          <mxGeometry y="52" width="160" height="26" as="geometry" />
        </mxCell>
        <mxCell id="Q8bDi00EePtrH43vO3di-66" value="List&lt;UseTeamDtor&gt; users" style="text;align=left;verticalAlign=top;spacingLeft=4;spacingRight=4;overflow=hidden;rotatable=0;points=[[0,0.5],[1,0.5]];portConstraint=eastwest;rounded=0;shadow=0;html=0;" vertex="1" parent="Q8bDi00EePtrH43vO3di-63">
          <mxGeometry y="78" width="160" height="26" as="geometry" />
        </mxCell>
      </root>
    </mxGraphModel>
  </diagram>
</mxfile>
